<svg width="39" height="39" viewBox="0 0 39 39" fill="none" xmlns="http://www.w3.org/2000/svg">
<path fill-rule="evenodd" clip-rule="evenodd" d="M31.6875 19.5C31.6875 26.2309 26.2309 31.6875 19.5 31.6875C12.769 31.6875 7.3125 26.2309 7.3125 19.5C7.3125 12.769 12.769 7.3125 19.5 7.3125C26.2309 7.3125 31.6875 12.769 31.6875 19.5ZM34.125 19.5C34.125 27.5772 27.5772 34.125 19.5 34.125C11.4228 34.125 4.875 27.5772 4.875 19.5C4.875 11.4228 11.4228 4.875 19.5 4.875C27.5772 4.875 34.125 11.4228 34.125 19.5ZM18.2812 21.9375V13.4062H20.7188V21.9375H18.2812ZM18.2812 25.5938V23.1562H20.7188V25.5938H18.2812Z" fill="#99B3E6"/>
</svg>
