<svg width="115" height="63" viewBox="0 0 115 63" fill="none" xmlns="http://www.w3.org/2000/svg">
<circle cx="83.449" cy="31.5" r="31.5" fill="#99B3E6"/>
<path d="M3.00998 15.0084C17.9711 0.697879 60.4532 44.4999 81.449 20.0042M3.00998 33.5042C17.9711 19.1937 60.4532 62.9957 81.449 38.5M3.00998 25.5C17.9711 11.1895 60.4532 54.9915 81.449 30.4958" stroke="#1A428C"/>
<path d="M70.2825 27.132C69.7906 34.0134 75.2163 38.087 79.1453 41.6669C80.5317 42.9301 81.8689 44.1217 83.2839 44.2229C84.699 44.324 86.192 43.3347 87.7441 42.2815C92.1423 39.2968 98.0922 36.0364 98.5841 29.155C99.0759 22.2735 91.6416 16.837 84.8011 22.9976C78.9064 15.9267 70.7744 20.2506 70.2825 27.132Z" fill="#3371E5"/>
</svg>
